<?xml version="1.0" encoding="UTF-8" standalone="no"?>
<svg xmlns:ffdec="https://www.free-decompiler.com/flash" xmlns:xlink="http://www.w3.org/1999/xlink" ffdec:objectType="shape" height="11.05px" width="11.05px" xmlns="http://www.w3.org/2000/svg">
  <g transform="matrix(1.0, 0.0, 0.0, 1.0, 5.5, 5.55)">
    <path d="M3.2 -3.2 Q4.45 -1.9 4.5 0.0 4.45 1.9 3.2 3.2 1.9 4.45 0.0 4.5 -1.9 4.45 -3.2 3.2 -4.45 1.9 -4.5 0.0 -4.45 -1.9 -3.2 -3.2 -1.9 -4.45 0.0 -4.5 1.9 -4.45 3.2 -3.2" fill="url(#gradient0)" fill-rule="evenodd" stroke="none"/>
    <path d="M0.0 -0.6 L5.0 -5.5 5.55 -4.95 0.6 0.0 0.0 -0.6 M0.0 0.55 L-4.95 5.45 -5.5 4.9 -0.55 0.0 0.0 0.55" fill="url(#gradient1)" fill-rule="evenodd" stroke="none"/>
    <path d="M0.0 -0.6 L0.6 0.0 5.5 4.95 4.95 5.5 0.0 0.55 -0.55 0.0 -5.5 -5.0 -4.95 -5.55 0.0 -0.6" fill="url(#gradient2)" fill-rule="evenodd" stroke="none"/>
    <path d="M1.8 -1.75 Q2.55 -1.0 2.55 0.05 L2.55 0.25 Q2.45 1.15 1.8 1.8 1.1 2.55 0.05 2.55 -0.95 2.55 -1.7 1.8 -2.35 1.15 -2.45 0.25 L-2.45 0.0 Q-2.45 -1.0 -1.7 -1.75 -0.95 -2.45 0.05 -2.45 1.1 -2.45 1.8 -1.75" fill="url(#gradient3)" fill-rule="evenodd" stroke="none"/>
  </g>
  <defs>
    <radialGradient cx="0" cy="0" gradientTransform="matrix(0.0055, 0.0, 0.0, 0.0055, 0.0, 0.0)" gradientUnits="userSpaceOnUse" id="gradient0" r="819.2" spreadMethod="pad">
      <stop offset="0.0" stop-color="#9cf4f7"/>
      <stop offset="1.0" stop-color="#ffffff" stop-opacity="0.0"/>
    </radialGradient>
    <radialGradient cx="0" cy="0" gradientTransform="matrix(0.0064, -0.0064, 0.0064, 0.0064, 0.0, -0.05)" gradientUnits="userSpaceOnUse" id="gradient1" r="819.2" spreadMethod="pad">
      <stop offset="0.0" stop-color="#ffffff"/>
      <stop offset="0.1568627450980392" stop-color="#ffffff"/>
      <stop offset="1.0" stop-color="#ffffff" stop-opacity="0.0"/>
    </radialGradient>
    <radialGradient cx="0" cy="0" gradientTransform="matrix(0.0064, 0.0064, -0.0064, 0.0064, 0.0, -0.05)" gradientUnits="userSpaceOnUse" id="gradient2" r="819.2" spreadMethod="pad">
      <stop offset="0.0" stop-color="#ffffff"/>
      <stop offset="0.1568627450980392" stop-color="#ffffff"/>
      <stop offset="1.0" stop-color="#ffffff" stop-opacity="0.0"/>
    </radialGradient>
    <radialGradient cx="0" cy="0" gradientTransform="matrix(0.0033, 0.0, 0.0, 0.0033, 0.15, 0.0)" gradientUnits="userSpaceOnUse" id="gradient3" r="819.2" spreadMethod="pad">
      <stop offset="0.0" stop-color="#ffffff"/>
      <stop offset="0.1568627450980392" stop-color="#ffffff"/>
      <stop offset="1.0" stop-color="#ffffff" stop-opacity="0.0"/>
    </radialGradient>
  </defs>
</svg>
