<?xml version="1.0" encoding="UTF-8" standalone="no"?>
<svg xmlns:ffdec="https://www.free-decompiler.com/flash" xmlns:xlink="http://www.w3.org/1999/xlink" ffdec:objectType="shape" height="13.5px" width="50.95px" xmlns="http://www.w3.org/2000/svg">
  <g transform="matrix(1.0, 0.0, 0.0, 1.0, 0.75, 0.75)">
    <path d="M0.85 9.7 Q0.05 9.6 0.0 8.8 L0.0 0.9 Q0.05 0.1 0.85 0.0 1.6 0.1 1.7 0.9 L1.7 8.8 Q1.6 9.6 0.85 9.7" fill="url(#gradient0)" fill-rule="evenodd" stroke="none"/>
    <path d="M0.85 9.7 Q0.05 9.6 0.0 8.8 L0.0 0.9 Q0.05 0.1 0.85 0.0 1.6 0.1 1.7 0.9 L1.7 8.8 Q1.6 9.6 0.85 9.7 Z" fill="none" stroke="#0000ae" stroke-linecap="round" stroke-linejoin="round" stroke-width="1.5"/>
    <path d="M9.2 6.7 L4.75 6.7 Q4.85 7.45 5.35 7.9 5.85 8.35 6.5 8.35 L7.4 8.1 7.65 7.95 Q7.95 7.6 8.85 7.55 L9.9 7.55 8.75 9.2 Q8.0 9.9 6.5 9.9 4.95 9.9 3.9 8.8 2.85 7.75 2.85 6.05 2.85 4.4 3.85 3.3 4.85 2.25 6.5 2.25 7.95 2.25 9.05 3.3 10.1 5.05 10.0 5.8 10.05 6.65 9.2 6.7 M7.65 4.2 Q7.2 3.8 6.5 3.8 5.85 3.8 5.35 4.15 L5.05 4.4 Q4.9 5.15 5.7 5.25 L8.25 5.25 7.65 4.2" fill="url(#gradient1)" fill-rule="evenodd" stroke="none"/>
    <path d="M9.2 6.7 L4.75 6.7 Q4.85 7.45 5.35 7.9 5.85 8.35 6.5 8.35 L7.4 8.1 7.65 7.95 Q7.95 7.6 8.85 7.55 L9.9 7.55 8.75 9.2 Q8.0 9.9 6.5 9.9 4.95 9.9 3.9 8.8 2.85 7.75 2.85 6.05 2.85 4.4 3.85 3.3 4.85 2.25 6.5 2.25 7.95 2.25 9.05 3.3 10.1 5.05 10.0 5.8 10.05 6.65 9.2 6.7 M7.65 4.2 Q7.2 3.8 6.5 3.8 5.85 3.8 5.35 4.15 L5.05 4.4 Q4.9 5.15 5.7 5.25 L8.25 5.25 7.65 4.2 Z" fill="none" stroke="#0000ae" stroke-linecap="round" stroke-linejoin="round" stroke-width="1.5"/>
    <path d="M17.2 3.35 L15.1 8.85 Q14.7 9.6 13.85 9.65 13.0 9.6 12.65 8.85 L10.5 3.35 Q10.3 2.6 11.05 2.5 11.95 2.6 12.3 3.35 L13.55 6.55 Q13.85 7.3 14.2 6.6 L15.4 3.35 Q15.8 2.6 16.65 2.5 17.45 2.6 17.2 3.35" fill="url(#gradient2)" fill-rule="evenodd" stroke="none"/>
    <path d="M17.2 3.35 L15.1 8.85 Q14.7 9.6 13.85 9.65 13.0 9.6 12.65 8.85 L10.5 3.35 Q10.3 2.6 11.05 2.5 11.95 2.6 12.3 3.35 L13.55 6.55 Q13.85 7.3 14.2 6.6 L15.4 3.35 Q15.8 2.6 16.65 2.5 17.45 2.6 17.2 3.35 Z" fill="none" stroke="#0000ae" stroke-linecap="round" stroke-linejoin="round" stroke-width="1.5"/>
    <path d="M23.9 6.7 L19.45 6.7 Q19.55 7.45 20.05 7.9 20.55 8.35 21.2 8.35 L22.1 8.1 22.35 7.95 Q22.7 7.6 23.55 7.55 L24.6 7.55 23.45 9.2 Q22.7 9.9 21.2 9.9 19.6 9.9 18.6 8.8 17.55 7.75 17.55 6.05 17.55 4.4 18.55 3.3 19.55 2.25 21.2 2.25 22.65 2.25 23.75 3.3 24.8 5.05 24.7 5.8 24.75 6.65 23.9 6.7 M22.35 4.2 Q21.9 3.8 21.2 3.8 20.55 3.8 20.05 4.15 L19.75 4.4 Q19.6 5.15 20.4 5.25 L22.95 5.25 Q22.8 4.6 22.35 4.2" fill="url(#gradient3)" fill-rule="evenodd" stroke="none"/>
    <path d="M23.9 6.7 L19.45 6.7 Q19.55 7.45 20.05 7.9 20.55 8.35 21.2 8.35 L22.1 8.1 22.35 7.95 Q22.7 7.6 23.55 7.55 L24.6 7.55 23.45 9.2 Q22.7 9.9 21.2 9.9 19.6 9.9 18.6 8.8 17.55 7.75 17.55 6.05 17.55 4.4 18.55 3.3 19.55 2.25 21.2 2.25 22.65 2.25 23.75 3.3 24.8 5.05 24.7 5.8 24.75 6.65 23.9 6.7 M22.35 4.2 Q21.9 3.8 21.2 3.8 20.55 3.8 20.05 4.15 L19.75 4.4 Q19.6 5.15 20.4 5.25 L22.95 5.25 Q22.8 4.6 22.35 4.2 Z" fill="none" stroke="#0000ae" stroke-linecap="round" stroke-linejoin="round" stroke-width="1.5"/>
    <path d="M26.9 9.7 Q26.1 9.6 26.05 8.8 L26.05 0.9 Q26.1 0.1 26.9 0.0 27.65 0.1 27.75 0.9 L27.75 8.8 Q27.65 9.6 26.9 9.7" fill="url(#gradient4)" fill-rule="evenodd" stroke="none"/>
    <path d="M26.9 9.7 Q26.1 9.6 26.05 8.8 L26.05 0.9 Q26.1 0.1 26.9 0.0 27.65 0.1 27.75 0.9 L27.75 8.8 Q27.65 9.6 26.9 9.7 Z" fill="none" stroke="#0000ae" stroke-linecap="round" stroke-linejoin="round" stroke-width="1.5"/>
    <path d="M40.55 3.4 L40.55 8.75 Q40.5 9.6 39.7 9.65 38.95 9.6 38.85 9.05 L38.0 9.6 36.85 9.85 Q35.95 9.85 35.05 9.25 34.3 8.35 34.35 8.1 L34.2 6.3 34.2 3.4 Q34.25 2.6 35.05 2.5 35.85 2.6 35.9 3.4 L35.9 6.75 Q35.9 7.55 36.3 7.9 36.7 8.3 37.35 8.25 38.05 8.2 38.45 7.8 L38.75 7.45 38.85 5.65 38.85 3.4 Q38.95 2.6 39.7 2.5 40.5 2.6 40.55 3.4" fill="url(#gradient5)" fill-rule="evenodd" stroke="none"/>
    <path d="M40.55 3.4 L40.55 8.75 Q40.5 9.6 39.7 9.65 38.95 9.6 38.85 9.05 L38.0 9.6 36.85 9.85 Q35.95 9.85 35.05 9.25 34.3 8.35 34.35 8.1 L34.2 6.3 34.2 3.4 Q34.25 2.6 35.05 2.5 35.85 2.6 35.9 3.4 L35.9 6.75 Q35.9 7.55 36.3 7.9 36.7 8.3 37.35 8.25 38.05 8.2 38.45 7.8 L38.75 7.45 38.85 5.65 38.85 3.4 Q38.95 2.6 39.7 2.5 40.5 2.6 40.55 3.4 Z" fill="none" stroke="#0000ae" stroke-linecap="round" stroke-linejoin="round" stroke-width="1.5"/>
    <path d="M49.45 6.05 Q49.45 7.85 48.5 8.85 47.5 9.85 46.0 9.85 L44.85 9.65 44.5 9.5 Q44.05 9.2 44.0 10.0 L44.0 11.1 Q43.9 11.9 43.15 12.0 42.35 11.9 42.3 11.1 L42.3 3.4 Q42.35 2.55 43.15 2.5 43.9 2.55 44.0 3.1 L44.85 2.5 46.0 2.3 Q47.5 2.3 48.5 3.3 49.45 4.3 49.45 6.05 M45.8 3.85 Q44.95 3.85 44.45 4.45 44.0 5.0 44.0 6.05 44.0 7.1 44.45 7.7 44.95 8.3 45.8 8.3 46.65 8.3 47.15 7.7 47.6 7.1 47.6 6.05 47.6 5.05 47.15 4.45 46.65 3.85 45.8 3.85" fill="url(#gradient6)" fill-rule="evenodd" stroke="none"/>
    <path d="M49.45 6.05 Q49.45 7.85 48.5 8.85 47.5 9.85 46.0 9.85 L44.85 9.65 44.5 9.5 Q44.05 9.2 44.0 10.0 L44.0 11.1 Q43.9 11.9 43.15 12.0 42.35 11.9 42.3 11.1 L42.3 3.4 Q42.35 2.55 43.15 2.5 43.9 2.55 44.0 3.1 L44.85 2.5 46.0 2.3 Q47.5 2.3 48.5 3.3 49.45 4.3 49.45 6.05 M45.8 3.85 Q44.95 3.85 44.45 4.45 44.0 5.0 44.0 6.05 44.0 7.1 44.45 7.7 44.95 8.3 45.8 8.3 46.65 8.3 47.15 7.7 47.6 7.1 47.6 6.05 47.6 5.05 47.15 4.45 46.65 3.85 45.8 3.85 Z" fill="none" stroke="#0000ae" stroke-linecap="round" stroke-linejoin="round" stroke-width="1.5"/>
    <path d="M0.85 9.7 Q0.05 9.6 0.0 8.8 L0.0 0.9 Q0.05 0.1 0.85 0.0 1.6 0.1 1.7 0.9 L1.7 8.8 Q1.6 9.6 0.85 9.7" fill="url(#gradient7)" fill-rule="evenodd" stroke="none"/>
    <path d="M9.2 6.7 L4.7 6.7 Q4.85 7.45 5.35 7.9 5.85 8.35 6.5 8.35 L7.4 8.1 7.65 7.95 Q7.95 7.6 8.8 7.55 L9.85 7.55 Q9.55 8.5 8.75 9.2 8.0 9.9 6.5 9.9 4.9 9.9 3.9 8.8 2.85 7.75 2.85 6.1 2.85 4.4 3.85 3.35 4.85 2.25 6.5 2.25 7.95 2.25 9.05 3.3 10.1 5.05 10.0 5.8 10.05 6.65 9.2 6.7 M6.5 3.8 Q5.8 3.85 5.35 4.2 L5.05 4.4 Q4.85 5.15 5.65 5.25 L8.25 5.25 7.65 4.2 Q7.2 3.85 6.5 3.8" fill="url(#gradient8)" fill-rule="evenodd" stroke="none"/>
    <path d="M17.2 3.35 L15.1 8.8 Q14.7 9.6 13.85 9.65 13.0 9.6 12.65 8.8 L10.5 3.35 Q10.3 2.55 11.05 2.5 11.95 2.55 12.3 3.35 L13.55 6.55 Q13.85 7.25 14.2 6.55 L15.4 3.35 Q15.8 2.55 16.65 2.5 17.45 2.55 17.2 3.35" fill="url(#gradient9)" fill-rule="evenodd" stroke="none"/>
    <path d="M23.9 6.7 L19.45 6.7 Q19.55 7.45 20.05 7.9 20.55 8.35 21.2 8.35 L22.1 8.1 22.35 7.95 Q22.65 7.6 23.5 7.55 L24.55 7.55 Q24.25 8.5 23.45 9.2 22.7 9.9 21.2 9.9 19.6 9.9 18.6 8.8 17.55 7.75 17.55 6.1 17.55 4.4 18.55 3.35 19.55 2.25 21.2 2.25 22.65 2.25 23.75 3.3 24.8 5.05 24.7 5.8 24.75 6.65 23.9 6.7 M21.2 3.8 Q20.5 3.85 20.05 4.2 L19.75 4.4 Q19.55 5.15 20.35 5.25 L22.95 5.25 Q22.8 4.6 22.35 4.2 21.9 3.85 21.2 3.8" fill="url(#gradient10)" fill-rule="evenodd" stroke="none"/>
    <path d="M26.9 9.7 Q26.1 9.6 26.05 8.8 L26.05 0.9 Q26.1 0.1 26.9 0.0 27.65 0.1 27.75 0.9 L27.75 8.8 Q27.65 9.6 26.9 9.7" fill="url(#gradient11)" fill-rule="evenodd" stroke="none"/>
    <path d="M40.55 3.4 L40.55 8.75 Q40.5 9.55 39.7 9.65 38.95 9.6 38.85 9.05 L38.0 9.6 36.85 9.85 Q35.95 9.85 35.05 9.2 34.3 8.35 34.35 8.1 L34.2 6.3 34.2 3.4 Q34.25 2.6 35.05 2.5 35.85 2.6 35.9 3.4 L35.9 6.75 Q35.9 7.55 36.3 7.9 36.7 8.25 37.35 8.25 38.05 8.2 38.45 7.75 L38.75 7.45 38.85 5.65 38.85 3.4 Q38.95 2.6 39.7 2.5 40.5 2.6 40.55 3.4" fill="url(#gradient12)" fill-rule="evenodd" stroke="none"/>
    <path d="M49.45 6.1 Q49.45 7.85 48.5 8.85 47.5 9.85 46.0 9.85 L44.85 9.65 44.5 9.5 Q44.05 9.2 44.0 10.0 L44.0 11.1 Q43.9 11.95 43.15 12.0 42.35 11.95 42.3 11.1 L42.3 3.4 Q42.35 2.6 43.15 2.5 43.9 2.55 44.0 3.15 L44.85 2.55 46.0 2.3 Q47.5 2.3 48.5 3.3 49.45 4.3 49.45 6.1 M45.8 3.85 Q44.95 3.85 44.45 4.45 44.0 5.05 44.0 6.1 44.0 7.15 44.45 7.75 44.95 8.3 45.8 8.3 46.65 8.3 47.15 7.75 47.6 7.15 47.6 6.1 47.6 5.05 47.15 4.45 46.65 3.85 45.8 3.85" fill="url(#gradient13)" fill-rule="evenodd" stroke="none"/>
  </g>
  <defs>
    <linearGradient gradientTransform="matrix(0.001, 0.0, 0.0, 0.001, 0.85, 4.85)" gradientUnits="userSpaceOnUse" id="gradient0" spreadMethod="pad" x1="-819.2" x2="819.2">
      <stop offset="0.41568627450980394" stop-color="#ffff66"/>
      <stop offset="0.8117647058823529" stop-color="#ffd432"/>
    </linearGradient>
    <linearGradient gradientTransform="matrix(0.0044, 0.0, 0.0, 0.0044, 6.45, 6.05)" gradientUnits="userSpaceOnUse" id="gradient1" spreadMethod="pad" x1="-819.2" x2="819.2">
      <stop offset="0.41568627450980394" stop-color="#ffff66"/>
      <stop offset="0.8117647058823529" stop-color="#ffd432"/>
    </linearGradient>
    <linearGradient gradientTransform="matrix(0.0041, 0.0, 0.0, 0.0041, 13.85, 6.1)" gradientUnits="userSpaceOnUse" id="gradient2" spreadMethod="pad" x1="-819.2" x2="819.2">
      <stop offset="0.41568627450980394" stop-color="#ffff66"/>
      <stop offset="0.8117647058823529" stop-color="#ffd432"/>
    </linearGradient>
    <linearGradient gradientTransform="matrix(0.0044, 0.0, 0.0, 0.0044, 21.15, 6.05)" gradientUnits="userSpaceOnUse" id="gradient3" spreadMethod="pad" x1="-819.2" x2="819.2">
      <stop offset="0.41568627450980394" stop-color="#ffff66"/>
      <stop offset="0.8117647058823529" stop-color="#ffd432"/>
    </linearGradient>
    <linearGradient gradientTransform="matrix(0.001, 0.0, 0.0, 0.001, 26.9, 4.85)" gradientUnits="userSpaceOnUse" id="gradient4" spreadMethod="pad" x1="-819.2" x2="819.2">
      <stop offset="0.41568627450980394" stop-color="#ffff66"/>
      <stop offset="0.8117647058823529" stop-color="#ffd432"/>
    </linearGradient>
    <linearGradient gradientTransform="matrix(0.0039, 0.0, 0.0, 0.0039, 37.4, 6.2)" gradientUnits="userSpaceOnUse" id="gradient5" spreadMethod="pad" x1="-819.2" x2="819.2">
      <stop offset="0.41568627450980394" stop-color="#ffff66"/>
      <stop offset="0.8117647058823529" stop-color="#ffd432"/>
    </linearGradient>
    <linearGradient gradientTransform="matrix(0.0044, 0.0, 0.0, 0.0044, 45.9, 7.15)" gradientUnits="userSpaceOnUse" id="gradient6" spreadMethod="pad" x1="-819.2" x2="819.2">
      <stop offset="0.41568627450980394" stop-color="#ffff66"/>
      <stop offset="0.8117647058823529" stop-color="#ffd432"/>
    </linearGradient>
    <linearGradient gradientTransform="matrix(0.0, 0.007, -0.007, 0.0, 0.85, 4.1)" gradientUnits="userSpaceOnUse" id="gradient7" spreadMethod="pad" x1="-819.2" x2="819.2">
      <stop offset="0.6" stop-color="#ffff66"/>
      <stop offset="0.8196078431372549" stop-color="#ffe240"/>
    </linearGradient>
    <linearGradient gradientTransform="matrix(0.0, 0.007, -0.007, 0.0, 6.45, 4.1)" gradientUnits="userSpaceOnUse" id="gradient8" spreadMethod="pad" x1="-819.2" x2="819.2">
      <stop offset="0.6" stop-color="#ffff66"/>
      <stop offset="0.8196078431372549" stop-color="#ffe240"/>
    </linearGradient>
    <linearGradient gradientTransform="matrix(0.0, 0.007, -0.007, 0.0, 13.85, 4.1)" gradientUnits="userSpaceOnUse" id="gradient9" spreadMethod="pad" x1="-819.2" x2="819.2">
      <stop offset="0.6" stop-color="#ffff66"/>
      <stop offset="0.8196078431372549" stop-color="#ffe240"/>
    </linearGradient>
    <linearGradient gradientTransform="matrix(0.0, 0.007, -0.007, 0.0, 21.15, 4.1)" gradientUnits="userSpaceOnUse" id="gradient10" spreadMethod="pad" x1="-819.2" x2="819.2">
      <stop offset="0.6" stop-color="#ffff66"/>
      <stop offset="0.8196078431372549" stop-color="#ffe240"/>
    </linearGradient>
    <linearGradient gradientTransform="matrix(0.0, 0.007, -0.007, 0.0, 26.9, 4.1)" gradientUnits="userSpaceOnUse" id="gradient11" spreadMethod="pad" x1="-819.2" x2="819.2">
      <stop offset="0.6" stop-color="#ffff66"/>
      <stop offset="0.8196078431372549" stop-color="#ffe240"/>
    </linearGradient>
    <linearGradient gradientTransform="matrix(0.0, 0.007, -0.007, 0.0, 37.4, 4.1)" gradientUnits="userSpaceOnUse" id="gradient12" spreadMethod="pad" x1="-819.2" x2="819.2">
      <stop offset="0.6" stop-color="#ffff66"/>
      <stop offset="0.8196078431372549" stop-color="#ffe240"/>
    </linearGradient>
    <linearGradient gradientTransform="matrix(0.0, 0.007, -0.007, 0.0, 45.9, 4.1)" gradientUnits="userSpaceOnUse" id="gradient13" spreadMethod="pad" x1="-819.2" x2="819.2">
      <stop offset="0.6" stop-color="#ffff66"/>
      <stop offset="0.8196078431372549" stop-color="#ffe240"/>
    </linearGradient>
  </defs>
</svg>
