<?xml version="1.0" encoding="UTF-8" standalone="no"?>
<svg xmlns:ffdec="https://www.free-decompiler.com/flash" xmlns:xlink="http://www.w3.org/1999/xlink" ffdec:objectType="shape" height="6.0px" width="6.0px" xmlns="http://www.w3.org/2000/svg">
  <g transform="matrix(1.0, 0.0, 0.0, 1.0, 3.0, 3.0)">
    <path d="M1.25 -0.95 L1.0 -0.45 Q0.8 -0.2 0.5 -0.2 0.2 -0.2 -0.05 -0.45 L-0.25 -0.95 -0.05 -1.5 0.5 -1.7 1.0 -1.5 1.25 -0.95" fill="#ffffff" fill-rule="evenodd" stroke="none"/>
    <path d="M0.55 2.4 Q0.4 2.7 -0.15 2.7 L-1.25 2.4 -2.15 1.6 Q-2.4 1.15 -2.25 0.85 -2.1 0.55 -1.55 0.5 L-0.4 0.85 0.45 1.6 Q0.7 2.1 0.55 2.4" fill="#97e2fb" fill-rule="evenodd" stroke="none"/>
    <path d="M2.15 -2.1 Q3.0 -1.25 3.0 0.0 3.0 1.25 2.15 2.15 1.25 3.0 0.0 3.0 -1.25 3.0 -2.1 2.15 -3.0 1.25 -3.0 0.0 -3.0 -1.25 -2.1 -2.1 -1.25 -3.0 0.0 -3.0 1.25 -3.0 2.15 -2.1 M1.25 -0.95 L1.0 -1.5 0.5 -1.7 -0.05 -1.5 -0.25 -0.95 -0.05 -0.45 Q0.2 -0.2 0.5 -0.2 0.8 -0.2 1.0 -0.45 L1.25 -0.95 M0.55 2.4 Q0.7 2.1 0.45 1.6 L-0.4 0.85 -1.55 0.5 Q-2.1 0.55 -2.25 0.85 -2.4 1.15 -2.15 1.6 L-1.25 2.4 -0.15 2.7 Q0.4 2.7 0.55 2.4" fill="#dfffff" fill-opacity="0.3019608" fill-rule="evenodd" stroke="none"/>
  </g>
</svg>
